<?xml version="1.0" encoding="iso-8859-1"?>
<!-- Generator: Adobe Illustrator 19.0.0, SVG Export Plug-In . SVG Version: 6.00 Build 0)  -->
<svg version="1.1" id="Layer_1" xmlns="http://www.w3.org/2000/svg" xmlns:xlink="http://www.w3.org/1999/xlink" x="0px" y="0px"
	 viewBox="0 0 512 512" style="enable-background:new 0 0 512 512;" xml:space="preserve">
<g>
	<g>
		<rect x="208.821" width="94.374" height="105.412"/>
	</g>
</g>
<g>
	<g>
		<path d="M208.816,150.588v46.846c12.11-6.614,23.648-13.71,35.345-20.908c14.319-8.811,28.776-17.706,44.488-25.939H208.816z"/>
	</g>
</g>
<g>
	<g>
		<rect x="348.356" width="103.409" height="105.412"/>
	</g>
</g>
<g>
	<g>
		<path d="M60.235,150.588v82.823c43.091,0,75.841-6.132,103.406-15.673v-67.15H60.235z"/>
	</g>
</g>
<g>
	<g>
		<rect x="60.235" width="103.409" height="105.412"/>
	</g>
</g>
<g>
	<g>
		<path d="M267.838,215.001c-50.798,31.262-103.326,63.587-207.602,63.587V512h391.529V158.118
			C360.276,158.118,315.375,185.749,267.838,215.001z M256,406.588c-49.9,0-90.353-20.227-90.353-45.177
			c0-24.951,40.453-45.176,90.353-45.176s90.353,20.226,90.353,45.176C346.353,386.361,305.9,406.588,256,406.588z"/>
	</g>
</g>
<g>
</g>
<g>
</g>
<g>
</g>
<g>
</g>
<g>
</g>
<g>
</g>
<g>
</g>
<g>
</g>
<g>
</g>
<g>
</g>
<g>
</g>
<g>
</g>
<g>
</g>
<g>
</g>
<g>
</g>
</svg>
